<?xml version="1.0" encoding="utf-8" standalone="no"?>
<!DOCTYPE svg PUBLIC "-//W3C//DTD SVG 1.1//EN"
  "http://www.w3.org/Graphics/SVG/1.1/DTD/svg11.dtd">
<!-- Created with matplotlib (https://matplotlib.org/) -->
<svg height="198.425197pt" version="1.1" viewBox="0 0 311.811024 198.425197" width="311.811024pt" xmlns="http://www.w3.org/2000/svg" xmlns:xlink="http://www.w3.org/1999/xlink">
 <metadata>
  <rdf:RDF xmlns:cc="http://creativecommons.org/ns#" xmlns:dc="http://purl.org/dc/elements/1.1/" xmlns:rdf="http://www.w3.org/1999/02/22-rdf-syntax-ns#">
   <cc:Work>
    <dc:type rdf:resource="http://purl.org/dc/dcmitype/StillImage"/>
    <dc:date>2022-02-28T22:15:34.548145</dc:date>
    <dc:format>image/svg+xml</dc:format>
    <dc:creator>
     <cc:Agent>
      <dc:title>Matplotlib v3.3.4, https://matplotlib.org/</dc:title>
     </cc:Agent>
    </dc:creator>
   </cc:Work>
  </rdf:RDF>
 </metadata>
 <defs>
  <style type="text/css">*{stroke-linecap:butt;stroke-linejoin:round;}</style>
 </defs>
 <g id="figure_1">
  <g id="patch_1">
   <path d="M 0 198.425197 
L 311.811024 198.425197 
L 311.811024 0 
L 0 0 
z
" style="fill:#ffffff;"/>
  </g>
  <g id="axes_1">
   <g id="patch_2">
    <path d="M 42.1 170.545197 
L 301.011024 170.545197 
L 301.011024 36.24 
L 42.1 36.24 
z
" style="fill:#ffffff;"/>
   </g>
   <g id="matplotlib.axis_1">
    <g id="xtick_1">
     <g id="line2d_1">
      <defs>
       <path d="M 0 0 
L 0 3.5 
" id="m1d6e147a2e" style="stroke:#000000;stroke-width:0.8;"/>
      </defs>
      <g>
       <use style="stroke:#000000;stroke-width:0.8;" x="42.1" xlink:href="#m1d6e147a2e" y="170.545197"/>
      </g>
     </g>
     <g id="text_1">
      <text style="font-family:DejaVu Sans;font-size:10px;font-stretch:normal;font-style:normal;font-weight:normal;text-anchor:start;" transform="rotate(-0, 42.1, 185.143634)" x="42.1" y="185.143634">-1.0</text>
     </g>
    </g>
    <g id="xtick_2">
     <g id="line2d_2">
      <g>
       <use style="stroke:#000000;stroke-width:0.8;" x="57.339024" xlink:href="#m1d6e147a2e" y="170.545197"/>
      </g>
     </g>
     <g id="text_2">
      <text style="font-family:DejaVu Sans;font-size:10px;font-stretch:normal;font-style:normal;font-weight:normal;text-anchor:middle;" transform="rotate(-0, 57.339024, 185.143634)" x="57.339024" y="185.143634">start</text>
     </g>
    </g>
    <g id="xtick_3">
     <g id="line2d_3">
      <g>
       <use style="stroke:#000000;stroke-width:0.8;" x="285.771999" xlink:href="#m1d6e147a2e" y="170.545197"/>
      </g>
     </g>
     <g id="text_3">
      <text style="font-family:DejaVu Sans;font-size:10px;font-stretch:normal;font-style:normal;font-weight:normal;text-anchor:middle;" transform="rotate(-0, 285.771999, 185.143634)" x="285.771999" y="185.143634">end</text>
     </g>
    </g>
    <g id="xtick_4">
     <g id="line2d_4">
      <g>
       <use style="stroke:#000000;stroke-width:0.8;" x="301.011024" xlink:href="#m1d6e147a2e" y="170.545197"/>
      </g>
     </g>
     <g id="text_4">
      <text style="font-family:DejaVu Sans;font-size:10px;font-stretch:normal;font-style:normal;font-weight:normal;text-anchor:end;" transform="rotate(-0, 301.011024, 185.143634)" x="301.011024" y="185.143634">1.0Kb</text>
     </g>
    </g>
   </g>
   <g id="matplotlib.axis_2">
    <g id="ytick_1">
     <g id="line2d_5">
      <defs>
       <path d="M 0 0 
L -3.5 0 
" id="m2b1587398c" style="stroke:#000000;stroke-width:0.8;"/>
      </defs>
      <g>
       <use style="stroke:#000000;stroke-width:0.8;" x="42.1" xlink:href="#m2b1587398c" y="152.891947"/>
      </g>
     </g>
     <g id="text_5">
      <text style="font-family:DejaVu Sans;font-size:10px;font-stretch:normal;font-style:normal;font-weight:normal;text-anchor:end;" transform="rotate(-0, 35.1, 156.691166)" x="35.1" y="156.691166">−0.2</text>
     </g>
    </g>
    <g id="ytick_2">
     <g id="line2d_6">
      <g>
       <use style="stroke:#000000;stroke-width:0.8;" x="42.1" xlink:href="#m2b1587398c" y="120.85203"/>
      </g>
     </g>
     <g id="text_6">
      <text style="font-family:DejaVu Sans;font-size:10px;font-stretch:normal;font-style:normal;font-weight:normal;text-anchor:end;" transform="rotate(-0, 35.1, 124.651249)" x="35.1" y="124.651249">0.0</text>
     </g>
    </g>
    <g id="ytick_3">
     <g id="line2d_7">
      <g>
       <use style="stroke:#000000;stroke-width:0.8;" x="42.1" xlink:href="#m2b1587398c" y="88.812113"/>
      </g>
     </g>
     <g id="text_7">
      <text style="font-family:DejaVu Sans;font-size:10px;font-stretch:normal;font-style:normal;font-weight:normal;text-anchor:end;" transform="rotate(-0, 35.1, 92.611332)" x="35.1" y="92.611332">0.2</text>
     </g>
    </g>
    <g id="ytick_4">
     <g id="line2d_8">
      <g>
       <use style="stroke:#000000;stroke-width:0.8;" x="42.1" xlink:href="#m2b1587398c" y="56.772196"/>
      </g>
     </g>
     <g id="text_8">
      <text style="font-family:DejaVu Sans;font-size:10px;font-stretch:normal;font-style:normal;font-weight:normal;text-anchor:end;" transform="rotate(-0, 35.1, 60.571415)" x="35.1" y="60.571415">0.4</text>
     </g>
    </g>
   </g>
   <g id="line2d_9">
    <path clip-path="url(#p4660ad2900)" d="M 42.1 104.916177 
L 42.25239 104.916177 
L 42.40478 105.409591 
L 42.861951 104.149622 
L 43.014341 104.79026 
L 43.166732 104.149622 
L 43.319122 104.330647 
L 43.471512 104.149622 
L 43.623902 103.190186 
L 43.776293 100.166659 
L 43.928683 99.760954 
L 44.233463 97.604507 
L 44.385854 96.567455 
L 44.538244 96.548952 
L 44.690634 94.164542 
L 44.843024 95.019046 
L 44.995415 94.250729 
L 45.604976 87.264906 
L 45.909756 84.200848 
L 46.214537 86.33767 
L 46.366927 86.33767 
L 46.519317 86.550576 
L 46.671707 83.994752 
L 46.824098 84.600066 
L 46.976488 81.888608 
L 47.128878 81.277606 
L 47.281268 83.595534 
L 47.433659 82.354628 
L 47.738439 82.459879 
L 47.890829 81.684834 
L 48.043219 81.797614 
L 48.19561 81.115885 
L 48.348 81.460074 
L 48.50039 80.954163 
L 48.805171 76.172606 
L 48.957561 74.054527 
L 50.481463 74.054527 
L 50.633854 72.167857 
L 50.786244 71.842812 
L 50.938634 70.680564 
L 51.091024 70.680564 
L 51.243415 70.471183 
L 51.395805 70.525971 
L 51.548195 70.413912 
L 51.700585 66.942627 
L 51.852976 66.942627 
L 52.005366 62.778239 
L 52.157756 62.778239 
L 52.462537 58.109062 
L 52.614927 59.605887 
L 52.919707 56.980696 
L 53.376878 55.704146 
L 53.529268 53.734492 
L 53.834049 56.254992 
L 53.986439 55.107402 
L 54.44361 46.832613 
L 54.596 49.27838 
L 54.74839 46.832613 
L 55.815122 46.832613 
L 55.967512 46.343684 
L 56.119902 45.199378 
L 56.272293 46.832613 
L 56.424683 46.832613 
L 56.577073 46.462872 
L 56.729463 46.832613 
L 57.186634 46.832613 
L 57.339024 45.199378 
L 57.643805 44.383161 
L 57.796195 46.832613 
L 58.405756 46.832613 
L 58.558146 43.276983 
L 58.710537 46.832613 
L 58.862927 46.832613 
L 59.015317 45.068815 
L 59.167707 45.287087 
L 59.624878 42.344782 
L 60.234439 46.832613 
L 60.99639 46.832613 
L 61.301171 51.015504 
L 61.453561 50.621653 
L 61.605951 46.832613 
L 61.758341 46.832613 
L 61.910732 49.415831 
L 62.063122 49.417914 
L 62.215512 47.958576 
L 62.672683 57.753739 
L 62.825073 57.96288 
L 62.977463 59.64041 
L 63.282244 55.55516 
L 63.434634 54.028538 
L 63.587024 55.649758 
L 63.739415 55.55516 
L 63.891805 54.878797 
L 64.044195 58.843256 
L 64.196585 57.753739 
L 64.348976 58.097527 
L 64.501366 54.473652 
L 64.653756 55.55516 
L 64.806146 55.55516 
L 64.958537 54.293909 
L 65.110927 55.55516 
L 65.415707 46.832613 
L 66.025268 46.832613 
L 66.177658 49.036479 
L 66.330049 46.832613 
L 67.092 46.832613 
L 67.24439 52.521941 
L 67.549171 54.446739 
L 67.701561 54.526919 
L 67.853951 56.076369 
L 68.158732 62.778239 
L 68.311122 61.748796 
L 68.463512 62.285945 
L 68.615902 61.143402 
L 68.768293 61.558639 
L 69.073073 58.109062 
L 69.377854 61.912841 
L 69.530244 62.011684 
L 69.682634 59.675974 
L 69.835024 59.19161 
L 69.987415 58.109062 
L 70.139805 55.649758 
L 70.292195 55.762378 
L 70.444585 56.810644 
L 70.596976 55.55516 
L 70.749366 57.106372 
L 70.901756 54.446739 
L 71.206536 55.649758 
L 71.358927 58.109062 
L 71.511317 58.279114 
L 71.663707 58.109062 
L 71.968488 60.490188 
L 72.273268 66.942627 
L 72.425658 69.099234 
L 72.578049 69.032751 
L 72.730439 71.469307 
L 73.035219 68.051208 
L 73.18761 68.631131 
L 73.49239 71.555894 
L 73.64478 69.849128 
L 73.797171 65.710051 
L 73.949561 65.710051 
L 74.101951 63.939606 
L 74.559122 70.276621 
L 74.711512 68.974118 
L 74.863902 66.546614 
L 75.016293 66.74462 
L 75.168683 65.539759 
L 75.473463 65.710051 
L 75.625854 66.103822 
L 75.778244 65.821791 
L 76.083024 68.295993 
L 76.387805 65.425056 
L 76.692585 68.295993 
L 76.844976 72.409598 
L 76.997366 71.982746 
L 77.149756 70.979817 
L 77.302146 72.016388 
L 77.454536 71.18343 
L 77.606927 74.054527 
L 78.521268 74.054527 
L 78.673658 75.312575 
L 78.978439 79.714859 
L 79.130829 80.182242 
L 79.43561 81.334958 
L 79.588 81.155694 
L 79.89278 80.171588 
L 80.045171 80.747506 
L 80.197561 79.535916 
L 80.502341 75.415583 
L 80.654732 74.054527 
L 81.569073 74.054527 
L 81.873854 73.483256 
L 82.026244 74.054527 
L 82.178634 74.054527 
L 82.331024 75.607502 
L 82.483415 75.00371 
L 82.635805 75.00371 
L 82.940585 78.923634 
L 83.092975 77.694262 
L 83.245366 77.405022 
L 83.397756 74.054527 
L 83.550146 75.434166 
L 83.854927 72.70004 
L 84.007317 74.054527 
L 84.464488 69.963831 
L 84.616878 69.129912 
L 84.769268 70.111295 
L 84.921658 68.946083 
L 85.226439 72.688105 
L 85.531219 71.623499 
L 85.68361 71.623499 
L 85.836 72.070776 
L 85.98839 71.623499 
L 86.14078 72.397503 
L 86.293171 70.964838 
L 86.445561 71.623499 
L 86.902732 70.719012 
L 87.207512 74.054527 
L 87.664683 74.054527 
L 87.817073 73.305434 
L 88.121854 70.23601 
L 88.274244 71.589697 
L 88.579024 71.623499 
L 88.731414 71.733155 
L 88.883805 72.061244 
L 89.036195 74.054527 
L 89.188585 72.723509 
L 89.340975 74.054527 
L 90.102927 74.054527 
L 90.407707 78.542519 
L 90.560097 78.308307 
L 90.712488 78.308307 
L 90.864878 80.284529 
L 91.322049 75.62144 
L 91.626829 81.845994 
L 91.779219 82.570577 
L 91.93161 82.459879 
L 92.084 87.129056 
L 92.23639 87.806861 
L 92.38878 87.806861 
L 92.541171 90.494689 
L 92.693561 89.78052 
L 92.845951 92.404269 
L 93.455512 92.554055 
L 93.760293 88.970711 
L 93.912683 90.000153 
L 94.065073 89.72461 
L 94.217463 90.544992 
L 94.369854 92.806129 
L 94.674634 88.970711 
L 95.131805 88.970711 
L 95.284195 89.604781 
L 95.436585 88.970711 
L 95.588975 90.000153 
L 95.741366 89.641467 
L 95.893756 88.970711 
L 96.350927 88.970711 
L 96.503317 89.303445 
L 96.655707 90.939003 
L 96.808097 89.82081 
L 96.960488 91.877853 
L 97.265268 92.645209 
L 97.417658 91.144219 
L 97.722439 93.463508 
L 97.874829 98.405345 
L 98.027219 99.121758 
L 98.17961 99.121758 
L 98.332 98.405345 
L 98.48439 98.405345 
L 98.63678 97.97617 
L 98.789171 96.903314 
L 98.941561 92.025236 
L 99.093951 91.37763 
L 99.246341 96.38683 
L 99.398732 97.174371 
L 99.551122 99.121758 
L 99.703512 99.018028 
L 99.855902 99.121758 
L 100.008293 98.405345 
L 100.160683 98.405345 
L 100.922634 85.581128 
L 101.075024 88.970711 
L 101.227414 88.970711 
L 101.379805 89.139481 
L 101.836975 93.211514 
L 101.989366 91.877853 
L 102.294146 93.8262 
L 102.446536 93.677855 
L 102.598927 93.033292 
L 102.751317 90.410585 
L 102.903707 89.844439 
L 103.208488 89.958021 
L 103.360878 89.604781 
L 103.513268 87.608854 
L 103.665658 84.104809 
L 103.818049 84.754338 
L 103.970439 88.272401 
L 104.275219 90.000153 
L 104.42761 90.000153 
L 104.58 88.970711 
L 104.88478 89.783083 
L 105.037171 90.000153 
L 105.189561 89.962346 
L 105.341951 90.4391 
L 105.799122 88.970711 
L 105.951512 88.970711 
L 106.256292 90.659054 
L 106.561073 88.970711 
L 106.865853 85.441995 
L 107.018244 86.099614 
L 107.170634 89.135236 
L 107.323024 89.135236 
L 107.780195 91.656937 
L 107.932585 91.877853 
L 108.084975 91.656937 
L 108.237366 89.306089 
L 108.389756 93.03129 
L 108.542146 93.211514 
L 108.694536 93.211514 
L 108.846927 97.663461 
L 108.999317 98.405345 
L 109.151707 92.261531 
L 109.304097 92.750139 
L 109.456488 97.449434 
L 109.608878 90.67187 
L 109.761268 93.374758 
L 109.913658 92.645209 
L 110.066049 94.766492 
L 110.218439 92.261531 
L 110.370829 94.473727 
L 110.523219 94.993014 
L 110.67561 93.22393 
L 110.828 89.622563 
L 110.98039 88.970711 
L 111.13278 88.970711 
L 111.285171 86.267503 
L 111.437561 86.267503 
L 111.589951 88.970711 
L 111.894732 90.100759 
L 112.199512 97.942208 
L 112.351902 96.534054 
L 112.504292 96.805912 
L 112.809073 96.286946 
L 112.961463 91.159117 
L 113.266244 88.970711 
L 113.418634 90.516637 
L 113.571024 89.783083 
L 113.875805 92.880782 
L 114.028195 92.177826 
L 114.332975 98.405345 
L 114.485366 98.405345 
L 114.637756 99.624143 
L 114.790146 101.934061 
L 114.942536 99.624143 
L 115.704488 104.269771 
L 115.856878 100.497071 
L 116.161658 98.405345 
L 116.314049 98.405345 
L 116.466439 101.934061 
L 116.618829 102.367081 
L 116.771219 100.246999 
L 117.076 100.246999 
L 117.22839 99.891677 
L 117.38078 100.086319 
L 117.533171 99.506717 
L 117.685561 98.405345 
L 117.990341 98.405345 
L 118.142731 100.497071 
L 118.295122 100.885395 
L 118.447512 101.934061 
L 118.599902 101.409728 
L 118.752292 100.372035 
L 118.904683 100.246999 
L 119.361853 104.451598 
L 119.514244 104.916177 
L 119.666634 104.916177 
L 119.819024 103.628653 
L 119.971414 104.683887 
L 120.123805 103.30569 
L 120.276195 104.683887 
L 120.580975 101.466599 
L 120.733366 104.683887 
L 120.885756 104.916177 
L 121.038146 104.683887 
L 121.190536 102.06935 
L 121.342927 104.916177 
L 121.495317 102.434605 
L 121.647707 104.916177 
L 121.800097 104.592974 
L 121.952488 106.988999 
L 122.257268 104.916177 
L 122.409658 107.937381 
L 122.714439 108.348693 
L 122.866829 108.833537 
L 123.17161 105.910535 
L 123.324 106.899848 
L 123.62878 106.735643 
L 123.78117 107.007662 
L 123.933561 104.327443 
L 124.238341 104.916177 
L 124.543122 104.526491 
L 124.695512 104.916177 
L 125.000292 109.131588 
L 125.152683 108.784997 
L 125.305073 107.337353 
L 125.457463 108.24176 
L 125.609853 107.200783 
L 125.762244 107.470078 
L 126.219414 103.787731 
L 126.371805 104.592974 
L 126.524195 104.269771 
L 126.676585 103.070838 
L 126.828975 103.787731 
L 126.981366 100.82548 
L 127.133756 101.392106 
L 127.286146 101.276442 
L 127.438536 99.945664 
L 127.590927 99.945664 
L 127.895707 101.392106 
L 128.200488 102.092579 
L 128.352878 99.094363 
L 128.505268 99.945664 
L 128.810049 98.871205 
L 129.267219 100.82548 
L 129.419609 102.189179 
L 129.572 101.934061 
L 129.72439 101.934061 
L 129.87678 104.70199 
L 130.02917 104.916177 
L 130.181561 108.24176 
L 130.333951 108.67534 
L 130.486341 103.144289 
L 130.638731 108.833537 
L 130.943512 110.141086 
L 131.095902 109.555717 
L 131.248292 108.24176 
L 131.705463 100.615939 
L 131.857853 99.945664 
L 132.162634 102.189179 
L 132.315024 104.112295 
L 132.467414 104.303253 
L 132.619805 104.916177 
L 132.772195 107.470078 
L 132.924585 107.127892 
L 133.076975 108.833537 
L 133.229366 108.24176 
L 133.534146 105.503148 
L 133.838927 110.141086 
L 133.991317 110.260275 
L 134.448488 104.916177 
L 134.753268 104.916177 
L 134.905658 105.743127 
L 135.210439 109.681794 
L 135.362829 109.263513 
L 135.515219 109.681794 
L 135.82 114.10106 
L 135.97239 114.10106 
L 136.27717 107.470078 
L 136.581951 103.748001 
L 136.886731 111.112857 
L 137.039122 112.435785 
L 137.343902 122.044075 
L 137.496292 120.270025 
L 137.648683 121.743541 
L 137.953463 118.687734 
L 138.105853 116.192625 
L 138.258244 116.192625 
L 138.410634 112.318919 
L 138.563024 113.023477 
L 138.867805 116.192625 
L 139.172585 112.775728 
L 139.324975 109.987054 
L 139.477366 110.027184 
L 139.629756 109.343452 
L 139.782146 109.681794 
L 139.934536 109.088495 
L 140.086927 105.253637 
L 140.239317 104.916177 
L 140.391707 105.656138 
L 140.544097 105.591097 
L 140.696488 108.24176 
L 140.848878 104.916177 
L 141.001268 105.591097 
L 141.153658 105.253637 
L 141.306048 107.470078 
L 141.458439 107.470078 
L 141.610829 105.538632 
L 141.763219 107.470078 
L 142.068 107.470078 
L 142.37278 107.019597 
L 142.52517 108.833537 
L 142.677561 113.321528 
L 142.829951 112.846937 
L 142.982341 114.91215 
L 143.134731 108.736456 
L 143.287122 108.24176 
L 143.439512 108.427992 
L 143.591902 109.681794 
L 143.896683 108.736456 
L 144.201463 102.725447 
L 144.353853 107.444366 
L 144.506244 105.891632 
L 144.811024 99.346838 
L 144.963414 104.916177 
L 145.115805 102.982247 
L 145.420585 108.24176 
L 145.725366 108.534925 
L 145.877756 109.512623 
L 146.030146 112.567629 
L 146.182536 112.997284 
L 146.334927 112.981104 
L 146.487317 115.974754 
L 146.792097 111.615883 
L 146.944487 112.372346 
L 147.096878 110.249621 
L 147.249268 109.681794 
L 147.554048 109.681794 
L 148.011219 113.846182 
L 148.316 113.527705 
L 148.62078 109.390231 
L 148.77317 109.390231 
L 148.925561 109.681794 
L 149.077951 108.534925 
L 149.230341 105.276225 
L 149.382731 108.348693 
L 149.535122 105.908453 
L 149.687512 108.24176 
L 149.839902 108.24176 
L 150.144683 109.681794 
L 150.297073 109.550911 
L 150.601853 109.681794 
L 150.754244 109.681794 
L 150.906634 109.907675 
L 151.363805 109.390231 
L 151.668585 110.067074 
L 151.820975 111.615883 
L 152.125756 108.899539 
L 152.278146 110.830265 
L 152.430536 108.455626 
L 152.582927 112.207661 
L 152.887707 112.290003 
L 153.040097 113.321528 
L 153.192487 108.455626 
L 153.344878 109.343452 
L 153.497268 105.126679 
L 153.649658 105.468465 
L 154.411609 116.192625 
L 154.564 116.746996 
L 154.71639 112.290003 
L 154.86878 112.908053 
L 155.02117 110.680158 
L 155.173561 110.680158 
L 155.478341 114.10106 
L 155.630731 113.530108 
L 155.935512 109.681794 
L 156.087902 109.681794 
L 156.392683 114.10106 
L 156.545073 109.681794 
L 156.697463 110.133557 
L 156.849853 111.412911 
L 157.002244 111.229642 
L 157.154634 115.120089 
L 157.307024 115.656357 
L 157.459414 112.574037 
L 157.611805 113.048628 
L 157.764195 114.10106 
L 157.916585 112.372346 
L 158.068975 112.725105 
L 158.221366 112.725105 
L 158.373756 113.321528 
L 158.526146 114.955164 
L 158.830926 113.321528 
L 158.983317 116.528564 
L 159.135707 113.583855 
L 159.288097 113.321528 
L 159.440487 116.192625 
L 159.592878 116.474577 
L 159.745268 115.146843 
L 159.897658 115.146843 
L 160.050048 114.058847 
L 160.202439 116.192625 
L 160.354829 116.192625 
L 160.507219 114.058847 
L 160.659609 116.192625 
L 160.812 116.192625 
L 160.96439 117.069157 
L 161.11678 118.916259 
L 161.26917 117.412225 
L 161.421561 117.356315 
L 161.573951 113.321528 
L 161.726341 113.321528 
L 161.878731 113.669081 
L 162.031122 113.321528 
L 162.183512 113.321528 
L 162.335902 111.969524 
L 162.488292 113.321528 
L 162.945463 113.321528 
L 163.097853 112.539915 
L 163.250244 111.050779 
L 163.402634 111.615883 
L 163.555024 113.321528 
L 163.707414 113.321528 
L 164.012195 118.848414 
L 164.164585 117.78589 
L 164.316975 114.57461 
L 164.774146 118.916259 
L 164.926536 116.192625 
L 165.078926 117.78589 
L 165.231317 116.192625 
L 165.383707 116.192625 
L 165.840878 118.515359 
L 165.993268 118.515359 
L 166.298048 120.433429 
L 166.450439 124.441622 
L 166.602829 122.284535 
L 166.755219 122.284535 
L 166.907609 124.597817 
L 167.06 123.828699 
L 167.51717 128.657194 
L 167.669561 127.529069 
L 167.821951 127.279638 
L 167.974341 124.597817 
L 168.126731 126.531907 
L 168.279122 126.531907 
L 168.583902 121.097857 
L 169.041073 117.412225 
L 169.193463 118.515359 
L 169.345853 117.694737 
L 169.498244 119.518048 
L 169.650634 119.75202 
L 169.803024 119.518048 
L 169.955414 122.284535 
L 170.107804 118.927713 
L 170.260195 118.515359 
L 170.412585 116.192625 
L 170.564975 116.582631 
L 170.717365 109.681794 
L 170.869756 109.681794 
L 171.174536 116.582631 
L 171.326926 116.192625 
L 171.479317 117.412225 
L 171.631707 117.412225 
L 171.784097 116.818045 
L 171.936487 113.321528 
L 172.088878 113.095647 
L 172.241268 114.837017 
L 172.546048 112.355765 
L 172.698439 113.095647 
L 172.850829 109.681794 
L 173.155609 111.615883 
L 173.308 114.837017 
L 173.46039 114.837017 
L 173.76517 117.412225 
L 173.917561 117.412225 
L 174.069951 115.533244 
L 174.222341 115.30544 
L 174.374731 115.533244 
L 174.527122 108.961777 
L 174.679512 107.855919 
L 174.831902 109.681794 
L 175.136683 118.349953 
L 175.289073 117.694737 
L 175.746244 113.321528 
L 175.898634 113.321528 
L 176.051024 112.958997 
L 176.203414 111.494452 
L 176.355804 111.494452 
L 176.508195 114.837017 
L 176.660585 113.321528 
L 176.812975 116.029943 
L 176.965365 114.120444 
L 177.117756 120.433429 
L 177.422536 111.494452 
L 177.574926 113.026441 
L 177.727317 111.350833 
L 177.879707 113.173985 
L 178.032097 113.100613 
L 178.184487 113.777697 
L 178.336878 116.192625 
L 178.489268 114.837017 
L 178.641658 109.681794 
L 178.946439 109.681794 
L 179.251219 116.192625 
L 179.403609 117.412225 
L 179.86078 113.321528 
L 180.317951 117.412225 
L 180.470341 117.412225 
L 180.622731 118.431895 
L 180.775122 116.192625 
L 181.079902 117.412225 
L 181.232292 116.192625 
L 181.384683 116.192625 
L 181.537073 113.321528 
L 181.689463 116.192625 
L 181.994243 116.192625 
L 182.146634 118.515359 
L 182.299024 118.515359 
L 182.451414 124.439059 
L 182.603804 124.841561 
L 182.756195 124.439059 
L 183.060975 119.016704 
L 183.213365 116.192625 
L 183.365756 116.286983 
L 183.670536 121.272394 
L 183.822926 126.093761 
L 183.975317 121.110112 
L 184.127707 120.861803 
L 184.280097 120.985957 
L 184.432487 121.272394 
L 184.889658 121.055324 
L 185.042048 124.260196 
L 185.194439 121.272394 
L 185.346829 120.931169 
L 185.651609 116.192625 
L 185.804 116.845919 
L 185.95639 116.192625 
L 186.10878 118.515359 
L 186.26117 118.001599 
L 186.413561 120.433429 
L 186.565951 119.132208 
L 186.718341 120.647616 
L 187.175512 129.266994 
L 187.327902 129.266994 
L 187.480292 125.572952 
L 187.785073 130.269683 
L 187.937463 129.187856 
L 188.089853 131.260197 
L 188.242243 128.376445 
L 188.547024 119.79199 
L 188.699414 117.153503 
L 188.851804 117.792058 
L 189.156585 125.112538 
L 189.308975 122.562642 
L 189.613756 126.531907 
L 189.766146 126.292248 
L 189.918536 126.86368 
L 190.070926 125.786178 
L 190.223317 128.047395 
L 190.528097 121.272394 
L 190.832878 124.317788 
L 190.985268 123.415704 
L 191.137658 121.009266 
L 191.442439 126.663591 
L 191.594829 126.693949 
L 191.747219 125.291882 
L 191.899609 126.531907 
L 192.052 124.597817 
L 192.20439 125.112538 
L 192.661561 129.266994 
L 192.813951 128.047395 
L 193.118731 129.748714 
L 193.271122 130.798182 
L 193.423512 129.266994 
L 193.575902 131.594214 
L 193.728292 130.068553 
L 194.337853 139.345871 
L 194.490243 140.543443 
L 194.795024 140.543443 
L 194.947414 137.076404 
L 195.404585 118.515359 
L 195.556975 121.819956 
L 195.709365 122.367518 
L 195.861756 124.346224 
L 196.014146 123.866746 
L 196.166536 127.066653 
L 196.318926 126.531907 
L 196.471317 124.317788 
L 196.623707 124.553522 
L 196.776097 123.174123 
L 196.928487 120.433429 
L 197.233268 122.367518 
L 197.385658 124.231841 
L 197.538048 128.047395 
L 197.690439 124.268527 
L 198.147609 131.108649 
L 198.3 128.626997 
L 198.45239 131.47871 
L 198.60478 131.610234 
L 198.75717 129.227425 
L 198.909561 130.21874 
L 199.061951 132.902403 
L 199.214341 130.244212 
L 199.366731 132.598905 
L 199.519121 129.266994 
L 199.671512 129.080682 
L 199.823902 127.700082 
L 200.128682 123.174123 
L 200.281073 128.808984 
L 200.433463 127.580093 
L 200.738243 129.187856 
L 200.890634 129.227425 
L 201.043024 128.944833 
L 201.195414 129.134269 
L 201.347804 128.808984 
L 201.804975 121.469199 
L 201.957365 121.469199 
L 202.109756 122.044075 
L 203.024097 135.189092 
L 203.176487 140.137257 
L 203.633658 129.266994 
L 203.786048 129.266994 
L 204.090829 127.333065 
L 204.243219 122.8345 
L 204.395609 122.253296 
L 204.85278 129.187856 
L 205.00517 128.312044 
L 205.15756 128.500279 
L 205.309951 126.848621 
L 205.462341 127.333065 
L 205.614731 131.780446 
L 205.767121 132.64272 
L 205.919512 131.737752 
L 206.071902 133.643807 
L 206.376682 140.543443 
L 206.681463 140.543443 
L 206.833853 134.836493 
L 206.986243 136.592601 
L 207.138634 135.966701 
L 207.291024 132.489729 
L 207.443414 131.737752 
L 207.595804 129.858131 
L 207.748195 132.085466 
L 207.900585 132.489729 
L 208.052975 131.297364 
L 208.205365 131.108649 
L 208.357756 135.086805 
L 208.510146 133.643807 
L 208.662536 136.172878 
L 208.814926 135.966701 
L 208.967317 136.592601 
L 209.119707 134.883111 
L 209.272097 134.883111 
L 209.424487 135.648064 
L 209.576878 135.377086 
L 209.881658 140.543443 
L 210.338829 140.543443 
L 210.491219 138.723576 
L 210.643609 140.543443 
L 242.797951 140.543443 
L 242.950341 142.486103 
L 243.102731 141.471639 
L 243.255121 145.881293 
L 243.407512 140.543443 
L 254.83678 140.543443 
L 255.14156 152.445311 
L 255.293951 153.124397 
L 255.598731 151.330642 
L 255.751121 152.971246 
L 255.903512 152.631703 
L 256.055902 149.542815 
L 256.208292 149.240438 
L 256.360682 146.706962 
L 256.513073 147.601036 
L 256.665463 149.978077 
L 256.970243 149.317414 
L 257.427414 150.174802 
L 257.732194 154.608486 
L 257.884585 155.296463 
L 258.036975 154.661993 
L 258.189365 158.920979 
L 258.341755 158.799147 
L 258.494146 158.067596 
L 258.646536 153.630307 
L 258.798926 153.465542 
L 258.951316 155.459466 
L 259.408487 149.925051 
L 259.560877 154.554979 
L 259.713268 155.459466 
L 259.865658 155.459466 
L 260.018048 154.459741 
L 260.475219 147.956919 
L 260.627609 147.282319 
L 260.779999 147.601036 
L 260.93239 147.21095 
L 261.23717 147.321648 
L 261.38956 149.652952 
L 261.694341 149.608016 
L 261.846731 150.242086 
L 261.999121 147.601036 
L 262.151512 149.278325 
L 262.303902 148.731244 
L 262.456292 150.110082 
L 262.761073 148.513853 
L 263.065853 152.393727 
L 263.523024 157.885529 
L 263.675414 157.058899 
L 263.827804 157.61383 
L 263.980194 157.058899 
L 264.284975 157.058899 
L 264.437365 155.007223 
L 264.589755 157.671182 
L 264.742146 157.556479 
L 264.894536 157.778355 
L 265.046926 157.058899 
L 265.199316 157.885529 
L 265.351707 157.721004 
L 265.504097 156.885563 
L 265.656487 158.245818 
L 265.808877 158.133117 
L 265.961268 154.917992 
L 266.113658 157.721004 
L 266.266048 162.571367 
L 266.418438 161.492102 
L 266.723219 161.455416 
L 267.027999 164.440415 
L 267.18039 164.06731 
L 267.33278 162.097016 
L 267.789951 147.011501 
L 267.942341 147.900449 
L 268.094731 147.14719 
L 268.247121 152.333572 
L 268.399512 147.790952 
L 268.551902 148.653707 
L 268.704292 153.753821 
L 268.856682 152.609435 
L 269.009072 153.108217 
L 269.161463 143.893056 
L 269.313853 149.957331 
L 269.466243 148.55182 
L 269.771024 156.488909 
L 269.923414 155.513373 
L 270.075804 144.003033 
L 270.380585 150.451547 
L 270.532975 143.956015 
L 270.685365 144.86699 
L 270.837755 146.546922 
L 270.990146 146.875812 
L 271.294926 149.725042 
L 271.447316 151.295078 
L 271.599707 155.459466 
L 271.752097 154.942983 
L 271.904487 155.459466 
L 272.514048 155.459466 
L 272.666438 157.294312 
L 272.818829 155.459466 
L 272.971219 155.808461 
L 273.275999 154.558984 
L 273.58078 153.039331 
L 273.73317 154.316282 
L 273.88556 156.594801 
L 274.037951 156.189896 
L 274.495121 145.856783 
L 274.647512 140.543443 
L 274.952292 145.856783 
L 275.104682 145.294963 
L 275.409463 150.817042 
L 275.561853 149.437003 
L 275.866633 144.205846 
L 276.019024 143.450585 
L 276.171414 145.294963 
L 276.323804 148.845466 
L 276.476194 148.587385 
L 276.780975 143.40629 
L 276.933365 143.917406 
L 277.085755 142.469843 
L 277.238146 146.146584 
L 277.390536 140.543443 
L 280.895511 140.543443 
L 281.047902 138.279502 
L 281.352682 131.444107 
L 281.505072 131.907884 
L 281.657463 131.645558 
L 281.809853 131.649803 
L 281.962243 127.333065 
L 282.114633 127.333065 
L 282.267024 127.751106 
L 282.571804 124.812004 
L 282.724194 127.407718 
L 282.876585 127.825759 
L 283.333755 121.536563 
L 283.486146 122.756163 
L 283.638536 121.992331 
L 284.095707 114.837017 
L 284.248097 116.730736 
L 284.552877 112.8334 
L 284.705268 112.040092 
L 285.162438 106.240707 
L 285.467219 106.865405 
L 285.619609 104.916177 
L 285.771999 104.916177 
L 285.92439 102.197429 
L 286.07678 102.197429 
L 286.22917 104.025627 
L 286.38156 102.197429 
L 286.53395 102.197429 
L 286.686341 101.934061 
L 286.838731 104.025627 
L 286.991121 103.564893 
L 287.143511 100.344321 
L 287.295902 100.82548 
L 287.448292 100.59279 
L 287.600682 101.825286 
L 287.753072 100.82548 
L 288.667414 107.298985 
L 288.819804 106.521216 
L 288.972194 109.109 
L 289.276975 109.681794 
L 289.429365 109.681794 
L 289.581755 112.207661 
L 289.734146 109.681794 
L 289.886536 110.985258 
L 290.191316 108.614224 
L 290.343707 108.614224 
L 290.648487 109.681794 
L 290.800877 108.736456 
L 290.953268 113.548852 
L 291.105658 112.663909 
L 291.258048 114.837017 
L 291.410438 112.207661 
L 291.715219 116.192625 
L 291.867609 116.192625 
L 292.17239 118.246304 
L 292.32478 117.716844 
L 292.47717 116.444059 
L 292.934341 119.194125 
L 293.086731 117.792058 
L 293.239121 117.641631 
L 293.391511 119.194125 
L 293.543902 117.884653 
L 293.848682 120.109105 
L 294.001072 121.000535 
L 294.153463 121.000535 
L 294.458243 126.02888 
L 294.610633 125.415075 
L 294.763024 127.659391 
L 294.915414 133.212069 
L 295.067804 134.24015 
L 295.220194 134.24015 
L 295.372585 133.121236 
L 295.524975 130.430684 
L 295.829755 139.488048 
L 295.982146 140.543443 
L 297.353658 140.543443 
L 297.658438 134.539964 
L 297.810829 137.989541 
L 297.963219 133.099128 
L 298.115609 133.431543 
L 298.267999 133.099128 
L 298.72517 135.463674 
L 298.87756 135.150084 
L 299.02995 132.708081 
L 299.182341 133.537675 
L 299.487121 131.081094 
L 299.639511 130.971358 
L 299.791902 129.128502 
L 299.944292 131.894588 
L 300.096682 131.894588 
L 300.249072 130.668901 
L 300.401463 127.428464 
L 300.553853 130.85313 
L 300.858633 131.8084 
L 301.011024 134.379924 
L 301.011024 134.379924 
" style="fill:none;stroke:#000080;stroke-linecap:square;stroke-opacity:0.9;stroke-width:1.5;"/>
   </g>
   <g id="patch_3">
    <path d="M 42.1 170.545197 
L 42.1 36.24 
" style="fill:none;stroke:#000000;stroke-linecap:square;stroke-linejoin:miter;stroke-width:0.8;"/>
   </g>
   <g id="patch_4">
    <path d="M 301.011024 170.545197 
L 301.011024 36.24 
" style="fill:none;stroke:#000000;stroke-linecap:square;stroke-linejoin:miter;stroke-width:0.8;"/>
   </g>
   <g id="patch_5">
    <path d="M 42.1 170.545197 
L 301.011024 170.545197 
" style="fill:none;stroke:#000000;stroke-linecap:square;stroke-linejoin:miter;stroke-width:0.8;"/>
   </g>
   <g id="patch_6">
    <path d="M 42.1 36.24 
L 301.011024 36.24 
" style="fill:none;stroke:#000000;stroke-linecap:square;stroke-linejoin:miter;stroke-width:0.8;"/>
   </g>
   <g id="text_9">
    <text style="font-family:DejaVu Sans;font-size:12px;font-stretch:normal;font-style:normal;font-weight:normal;text-anchor:middle;" transform="rotate(-0, 171.555512, 30.24)" x="171.555512" y="30.24">elys.embryos</text>
   </g>
   <g id="legend_1">
    <g id="line2d_10">
     <path d="M 245.032122 47.150998 
L 261.692122 47.150998 
" style="fill:none;stroke:#000080;stroke-linecap:square;stroke-opacity:0.9;stroke-width:1.5;"/>
    </g>
    <g id="line2d_11"/>
    <g id="text_10">
     <text style="font-family:DejaVu Sans;font-size:8.33px;font-stretch:normal;font-style:normal;font-weight:normal;text-anchor:start;" transform="rotate(-0, 268.356122, 50.066498)" x="268.356122" y="50.066498">genes</text>
    </g>
   </g>
  </g>
 </g>
 <defs>
  <clipPath id="p4660ad2900">
   <rect height="134.305197" width="258.911024" x="42.1" y="36.24"/>
  </clipPath>
 </defs>
</svg>
